<mxfile host="app.diagrams.net" agent="Mozilla/5.0 (Macintosh; Intel Mac OS X 10_15_7) AppleWebKit/537.36 (KHTML, like Gecko) Chrome/133.0.0.0 Safari/537.36" version="26.0.16">
  <diagram name="第 1 页" id="_30U15q6uizshzYyVMpY">
    <mxGraphModel dx="984" dy="707" grid="1" gridSize="10" guides="1" tooltips="1" connect="1" arrows="1" fold="1" page="1" pageScale="1" pageWidth="827" pageHeight="1169" math="0" shadow="0">
      <root>
        <mxCell id="0" />
        <mxCell id="1" parent="0" />
        <mxCell id="xQqMgUkMzhKEqNWWZUp3-1" value="" style="whiteSpace=wrap;html=1;aspect=fixed;" vertex="1" parent="1">
          <mxGeometry x="50" y="110" width="350" height="350" as="geometry" />
        </mxCell>
        <mxCell id="xQqMgUkMzhKEqNWWZUp3-2" value="" style="whiteSpace=wrap;html=1;aspect=fixed;" vertex="1" parent="1">
          <mxGeometry x="560" y="110" width="350" height="350" as="geometry" />
        </mxCell>
        <mxCell id="xQqMgUkMzhKEqNWWZUp3-3" value="" style="rounded=1;whiteSpace=wrap;html=1;" vertex="1" parent="1">
          <mxGeometry x="130" y="150" width="190" height="90" as="geometry" />
        </mxCell>
        <mxCell id="xQqMgUkMzhKEqNWWZUp3-4" value="Zone A" style="text;html=1;align=center;verticalAlign=middle;whiteSpace=wrap;rounded=0;" vertex="1" parent="1">
          <mxGeometry x="50" y="120" width="60" height="30" as="geometry" />
        </mxCell>
        <mxCell id="xQqMgUkMzhKEqNWWZUp3-5" value="Zone B" style="text;html=1;align=center;verticalAlign=middle;whiteSpace=wrap;rounded=0;" vertex="1" parent="1">
          <mxGeometry x="570" y="120" width="60" height="30" as="geometry" />
        </mxCell>
        <mxCell id="xQqMgUkMzhKEqNWWZUp3-6" value="Proxy server" style="text;html=1;align=center;verticalAlign=middle;whiteSpace=wrap;rounded=0;" vertex="1" parent="1">
          <mxGeometry x="140" y="160" width="60" height="30" as="geometry" />
        </mxCell>
        <mxCell id="xQqMgUkMzhKEqNWWZUp3-7" value="" style="rounded=1;whiteSpace=wrap;html=1;" vertex="1" parent="1">
          <mxGeometry x="670" y="150" width="190" height="90" as="geometry" />
        </mxCell>
        <mxCell id="xQqMgUkMzhKEqNWWZUp3-8" value="Proxy server" style="text;html=1;align=center;verticalAlign=middle;whiteSpace=wrap;rounded=0;" vertex="1" parent="1">
          <mxGeometry x="790" y="160" width="60" height="30" as="geometry" />
        </mxCell>
        <mxCell id="xQqMgUkMzhKEqNWWZUp3-15" style="edgeStyle=orthogonalEdgeStyle;rounded=0;orthogonalLoop=1;jettySize=auto;html=1;exitX=1;exitY=0.25;exitDx=0;exitDy=0;entryX=0;entryY=0.25;entryDx=0;entryDy=0;" edge="1" parent="1" source="xQqMgUkMzhKEqNWWZUp3-9" target="xQqMgUkMzhKEqNWWZUp3-10">
          <mxGeometry relative="1" as="geometry" />
        </mxCell>
        <mxCell id="xQqMgUkMzhKEqNWWZUp3-9" value="server pool" style="rounded=0;whiteSpace=wrap;html=1;" vertex="1" parent="1">
          <mxGeometry x="220" y="180" width="80" height="45" as="geometry" />
        </mxCell>
        <mxCell id="xQqMgUkMzhKEqNWWZUp3-16" style="edgeStyle=orthogonalEdgeStyle;rounded=0;orthogonalLoop=1;jettySize=auto;html=1;exitX=0;exitY=0.5;exitDx=0;exitDy=0;" edge="1" parent="1" source="xQqMgUkMzhKEqNWWZUp3-10" target="xQqMgUkMzhKEqNWWZUp3-9">
          <mxGeometry relative="1" as="geometry" />
        </mxCell>
        <mxCell id="xQqMgUkMzhKEqNWWZUp3-10" value="server pool" style="rounded=0;whiteSpace=wrap;html=1;" vertex="1" parent="1">
          <mxGeometry x="690" y="180" width="80" height="45" as="geometry" />
        </mxCell>
        <mxCell id="xQqMgUkMzhKEqNWWZUp3-11" value="Application A" style="rounded=1;whiteSpace=wrap;html=1;" vertex="1" parent="1">
          <mxGeometry x="165" y="330" width="120" height="60" as="geometry" />
        </mxCell>
        <mxCell id="xQqMgUkMzhKEqNWWZUp3-13" value="Application A" style="rounded=1;whiteSpace=wrap;html=1;" vertex="1" parent="1">
          <mxGeometry x="590" y="330" width="120" height="60" as="geometry" />
        </mxCell>
        <mxCell id="xQqMgUkMzhKEqNWWZUp3-14" value="Application B" style="rounded=1;whiteSpace=wrap;html=1;" vertex="1" parent="1">
          <mxGeometry x="740" y="330" width="120" height="60" as="geometry" />
        </mxCell>
        <mxCell id="xQqMgUkMzhKEqNWWZUp3-17" value="高速内网长连接" style="text;html=1;align=center;verticalAlign=middle;whiteSpace=wrap;rounded=0;" vertex="1" parent="1">
          <mxGeometry x="460" y="210" width="60" height="30" as="geometry" />
        </mxCell>
      </root>
    </mxGraphModel>
  </diagram>
</mxfile>
